<?xml version="1.0" encoding="UTF-8"?>
<svg width="2732pt" height="2048pt" version="1.0" viewBox="0 0 2732 2048" xmlns="http://www.w3.org/2000/svg">
<g transform="translate(0 2048) scale(.1 -.1)" fill="#50af30">
<path d="m9705 13505c-55-30-108-64-118-77-13-17-21-56-28-133-6-61-13-136-16-168-5-56-5-58 32-93 21-19 62-50 91-69 30-19 54-40 54-47 0-36-52-314-59-321-5-5-46-30-92-55l-84-47-8-94c-5-51-6-104-3-116 3-13 39-51 80-85l74-63 6-61c10-98 54-724 58-811l3-80-60-30c-34-16-81-39-105-50-40-18-45-24-48-55-2-19-12-84-23-143-11-60-17-117-14-128 4-10 44-51 91-90l84-71v-87c0-47-5-196-11-331s-18-418-27-630l-17-385-83-41c-45-22-89-47-97-55-17-17-31-89-40-211l-6-87 63-58c134-125 121-104 114-191-3-42-13-248-21-457s-17-393-20-410c-3-16-9-156-15-310-5-154-15-376-22-493l-12-212-98-51c-54-27-105-60-112-72-10-14-17-66-22-145l-7-124 145-145-18-86c-45-231 59-471 233-537 81-31 188-25 268 15l58 28 39-42c22-22 50-44 63-47 31-8 142 57 175 102l25 35 95-5c100-6 217-16 465-38 218-19 308-17 333 5 11 10 52 97 92 192l72 173 171 78c95 42 250 112 346 156 95 43 179 78 185 78 7 0 25-13 41-30 16-16 35-30 43-30 36 0 252 84 273 106 20 21 23 37 27 152l5 128-34 38c-27 32-31 41-21 56 6 11 89 121 184 245 320 419 330 434 324 480-26 201-42 312-62 437-13 81-24 157-24 168s73 117 161 235l162 215-21 128c-12 70-49 318-82 552-34 234-67 465-75 514s-12 93-9 98c3 4 22 17 43 27 20 11 43 26 49 34 7 8 17 67 23 131l10 116-103 112c-97 107-104 113-140 112l-38-1v44c0 24 4 86 10 136 13 126 28 313 36 427l5 95-170 144c-94 79-171 148-171 152s12 16 26 26c26 19 27 23 32 160s4 141-18 159c-13 11-45 38-72 62-91 79-123 95-171 89l-42-6-44 122c-24 67-63 179-88 248-51 143-33 126-203 188-193 69-198 71-204 94-3 12-30 44-61 71-47 41-61 47-85 42-26-5-33 0-59 38-91 131-277 222-441 214-51-2-64 0-62 11 8 39-13 74-75 127-64 54-67 55-112 49-46-6-46-6-104 54-141 147-227 193-494 267-7 2-13 18-13 35 0 27-16 48-97 131-98 100-136 129-170 127-10 0-63-25-118-54zm202-137 83-83v-102c0-117 10-105-119-153l-81-29-37 24c-21 13-55 36-76 50l-38 26 7 97c12 177 10 171 89 213 39 21 74 37 80 38 5 1 47-36 92-81zm298-230c109-36 194-88 284-175l86-82-27-23c-24-21-27-31-33-118-7-94-6-97 19-127 42-50 120-103 152-103 34 0 158 71 197 113 28 29 30 29 111 25 96-5 187-42 255-104 66-58 71-75 58-177-8-69-7-92 3-112 7-14 11-26 9-28-121-91-269-197-274-197-4 0-20 11-37 25-38 32-60 32-149-6-41-16-99-40-129-51-78-30-80-33-80-98 0-90 0-90-96-90-108 0-275-18-291-32-23-19-14-46 53-171 37-67 100-184 141-260l74-138-21-62c-39-111-38-123 20-204 32-45 61-75 75-79 14-3 62-2 107 2 78 9 83 11 105 42 12 18 31 62 43 97 25 75 19 97-48 181-34 44-46 52-84 57-113 17-102 6-231 239-67 121-114 215-109 220s60 10 123 11l114 2 5-42c8-53 13-59 130-143 142-101 143-101 307 0 94 57 134 88 137 103 3 12 7 75 10 140l6 119-35 35c-19 19-35 38-35 42 1 3 55 46 121 95 94 69 128 89 157 91 41 3 116 42 151 79l23 24 126-45c70-24 132-50 139-56 11-11 175-458 170-463-1-2-24-12-50-23-29-12-51-29-56-43-4-13-11-85-15-161-8-164-10-159 101-247 86-68 100-71 185-36l57 23 96-80c54-46 95-87 95-98 0-32-102-173-181-250-130-126-290-222-469-280-102-33-144-34-260-7-73 17-80 23-80 64 0 23-7 40-21 52-12 9-56 47-98 84-46 41-85 68-99 68-13 0-40-11-60-25s-41-25-46-25c-24 0-147-84-151-104-2-11-9-75-14-141-10-113-9-122 10-145 54-70 64-53-159-269-128-125-202-204-202-216 1-37 39-104 85-150 66-66 135-95 242-102 78-5 97-2 167 21 43 15 110 47 148 71 93 61 113 110 54 136-22 10-33 6-101-40-168-112-329-117-432-14-24 23-43 48-43 55-1 7 81 92 182 189l182 176 42-18c47-21 37-24 199 48 115 51 125 62 125 141 0 62 1 64 23 58 156-41 153-41 234-27 187 31 405 141 584 294 75 65 120 118 193 230 21 31 41 57 44 57 4 0 22-14 40-31 29-27 33-36 28-64-4-19-11-93-17-167-11-138-23-288-35-420l-7-78-58-21c-32-12-64-28-70-35-6-8-15-46-20-86-4-40-13-100-19-133-5-33-10-79-10-102 0-41 2-43 93-114 126-98 125-97 189-66 29 15 56 23 59 19 6-6 69-438 69-469 0-6-21-13-46-17-182-24-437-156-606-311-173-158-317-371-378-560-13-38-27-74-31-79s-22 3-39 18c-17 14-39 26-47 26-26 0-224-113-238-135-8-12-15-75-19-155l-6-134 82-83c95-96 106-99 209-57 105 43 155 71 183 104 25 30 26 37 26 150 0 112-1 120-25 148-31 37-31 60 0 152 100 293 346 575 623 714 81 41 225 91 288 100l42 6 11-78c7-42 28-182 47-311l34-233-97-132c-54-72-121-162-150-200-29-37-56-80-60-95-4-14 1-71 10-126 20-118 67-487 67-524 0-36-104-168-164-208-61-42-117-57-184-50-73 8-148 45-210 106-58 56-84 63-107 27-22-33-9-60 56-122 79-73 154-106 262-113l89-6-113-147c-62-82-117-148-124-148-6 0-22 11-35 25-24 26-58 32-88 15-9-5-60-27-112-50-52-22-101-48-107-57-7-9-13-34-13-55 0-32-4-40-26-48-37-14-109-12-148 4-46 19-114 82-137 127-23 46-25 151-4 189 8 14 14 37 15 53 0 35-12 43-250 147l-190 84v63 62l-67 54c-38 30-85 71-105 91s-47 36-60 36c-12 0-78-28-146-62-133-67-142-77-142-149v-39l-72 1c-40 0-111 4-158 8-98 9-113 4-157-59-15-22-58-81-95-130-88-118-93-127-79-156 14-31 53-32 82-1 11 12 58 73 102 136l82 113 65-6c36-3 100-6 144-6h78l-6-54c-6-48-5-56 15-75 13-12 26-21 29-21 4 0 42-27 86-60 86-65 115-73 169-44 17 9 61 30 100 46 80 33 125 71 125 105 0 13 6 23 14 23 15 0 285-117 303-131 8-8 9-18 1-40-6-17-8-62-6-99 7-88 42-162 107-223 72-68 113-85 217-91 49-3 90-5 92-5 1-1 2-18 2-38 0-26 8-45 26-64l25-26-187-84c-415-186-517-235-524-249-4-8-34-81-66-163-31-81-63-155-70-165-13-19-42-18-344 8-74 7-207 15-296 18-171 7-194 14-194 57 0 25-44 90-98 148-46 48-71 47-146-6-74-52-96-88-104-174-7-65-8-68-46-89-92-52-190-38-265 35-63 62-92 136-98 256-8 149-9 148 146 226 74 37 138 73 143 81 5 7 12 19 17 27 6 10 40-1 157-54 82-37 178-80 213-96 113-51 113-51 286 154 99 117 100 118 136 112 29-5 43 0 85 28 56 38 84 85 84 140 0 48-12 71-63 125-54 55-91 57-164 7-46-31-52-40-58-79-4-24-5-68-4-96l4-52-104-122c-56-66-107-125-111-129-7-8-182 66-401 167l-57 26-4 66c-5 73 2 64-123 166-27 22-52 45-55 52-7 13 3 297 19 596 6 113 16 309 21 435 9 217 23 507 38 800l7 130 113 56c63 30 118 62 123 70s9 68 9 134c0 147-6 160-119 239l-81 58 5 61c3 34 9 220 15 412 11 370 27 779 36 881 5 58 7 62 40 77 19 10 36 17 37 17 2 0 3-64 3-142 2-349 118-731 311-1022 81-123 238-284 343-352l75-50-4-125-3-125 104-94-87-150c-85-145-88-149-116-143-22 4-46-5-105-38-42-24-79-50-84-59-4-8-11-61-15-118-5-85-4-107 9-127 18-28 117-75 155-74 14 0 64 19 111 42l85 42 3 101c3 96 1 103-22 131l-25 29 92 154c91 153 92 154 137 165 65 17 213 83 228 103 7 9 12 28 11 42 0 14-1 30 0 35 1 6 63 10 164 10 171 0 249 11 373 51 48 15 84 21 107 17 41-6 210 41 229 64 6 8 14 62 16 123l5 108-65 66c-74 77-91 80-197 42-85-29-98-49-111-163-10-80-9-95 5-116 19-29 16-32-55-53-120-36-367-54-442-33-36 9-38 12-38 52 0 57-33 103-127 178-53 42-81 58-94 54-10-4-55-26-100-51l-80-45-57 31c-31 17-84 54-118 83-317 272-523 781-512 1265 3 135 4 145 26 162 12 10 28 20 35 23 8 2 15 51 23 153 13 189 12 192-107 250l-85 42-22 303c-12 167-27 387-34 488l-12 184 40 31c108 85 107 84 112 179l4 86-66 72c-48 54-64 78-60 93 2 12 11 62 19 111 25 155 34 189 56 208 12 9 28 17 35 17 8 0 57 20 109 44l95 45v69c0 38 3 72 6 75 8 8 37 2 119-25zm559-327c24-25 27-34 24-87-3-58-3-59-50-88l-48-29-40 28-41 28 3 61c3 59 3 60 48 87 58 35 70 35 104 0zm-1013-363c47-49 50-56 46-95-4-42-43-98-88-131-24-17-61 1-112 55-33 33-37 43-37 90 0 29 5 57 13 63 16 15 110 69 120 69 4 1 30-23 58-51zm1733-67c27-30 18-91-16-110-24-14-28-14-47 3-30 27-29 89 1 110 29 21 41 20 62-3zm-472-449c35-27 73-54 86-61 20-11 22-19 22-95 0-67-3-86-17-98-39-33-185-118-202-118-10 0-38 15-62 33-24 19-59 42-77 53l-34 19 7 110c4 61 11 114 16 119 8 9 176 83 191 85 4 1 35-21 70-47zm1257-336c35-29 68-61 73-70s6-51 2-97l-7-81-36-15c-20-8-66-29-102-45l-67-31-43 31c-83 57-85 63-81 183l4 107 81 35c45 20 89 36 97 36 9 1 44-23 79-53zm-1521-483c35-40 36-48 7-116-12-30-21-37-43-37-15 0-36-3-47-6-16-4-28 5-54 41l-33 46 18 60 19 61 50-6c42-4 55-11 83-43zm-848-219v-105l-34-14c-19-8-38-19-41-25-4-6-33-24-66-40l-59-30-130 104v95c0 136 1 138 83 176l71 33 176-88v-106zm1408-302c62-57 62-58 62-113 0-31 3-77 6-102l6-45-78-37c-118-55-120-54-186 9l-57 56 6 97c3 54 10 104 16 111 12 15 135 81 152 82 6 0 38-26 73-58zm1474-529 78-78v-56c0-33-5-61-12-67s-65-37-128-70l-115-60-60 45c-33 25-61 46-63 48-6 5 37 238 45 246 9 9 153 68 168 69 5 0 45-35 87-77zm-1013-858c26-29 31-44 31-84 0-56-8-65-74-82l-50-12-28 33c-28 34-35 76-22 126 6 21 60 51 95 53 10 1 31-15 48-34zm-919-122 51-48 6-100c7-114 11-107-85-149l-64-28-44 24c-81 42-87 54-85 163 1 53 4 102 7 108 6 16 114 74 141 76 13 1 42-17 73-46zm-1159-46 74-53 3-95 3-94-86-43c-47-23-92-42-99-42-8 0-45 26-81 58l-67 57 6 86c3 48 8 93 11 101 6 14 125 75 151 77 6 1 44-23 85-52zm763-763c46-35 47-36 44-87s-4-52-51-76l-49-24-36 21c-37 21-37 21-37 89 0 65 1 68 34 90 19 13 37 23 41 23s28-16 54-36zm1260-174 64-51 4-80c2-44 0-88-3-97-4-9-48-35-99-56l-92-40-53 55c-52 54-52 55-48 109 10 138 8 132 76 173 34 20 68 37 75 37s41-23 76-50zm-805-806c36-31 69-62 72-68 9-17-5-194-16-204-5-5-47-26-92-47l-81-37-71 48-70 49-1 65c0 36 3 89 7 119l6 54 81 38c45 21 85 39 90 39s39-25 75-56zm1242-706 69-73v-87-86l-81-31c-44-17-86-31-93-31s-45 30-83 68c-53 51-71 75-75 101-5 34 16 128 33 146 9 9 136 63 152 64 5 1 40-32 78-71zm-1593-14c51-36 7-134-47-104-28 14-30 86-3 106 22 17 23 17 50-2zm-1042-33c106-79 108-81 112-163 2-42-1-84-6-95-10-18-170-103-195-103-7 0-41 28-75 63l-63 63 3 90 3 89 85 42c47 23 88 42 91 42 3 1 24-12 45-28zm529-777c30-40 35-55 35-100 0-50-2-55-37-79-21-14-43-25-49-25-20 0-84 79-83 103 1 64 15 97 49 121 19 14 38 25 42 26 4 0 23-21 43-46z"/>
<path d="m9051 13494c-17-14-52-64-77-110-54-99-66-103-160-53-155 83-282 142-315 146-43 6-148-44-221-105-74-62-115-69-250-42-192 38-324 9-490-107-261-182-339-218-511-233-148-13-191-27-382-123l-160-81-120-122c-66-67-138-130-160-141s-85-30-140-42c-120-25-227-75-284-133-67-66-188-290-231-423-107-338-154-429-353-680-88-110-178-270-217-385-32-94-31-207 3-335 29-112 48-159 148-360 76-154 93-211 108-361 12-113 27-157 73-209 33-39 131-111 187-140 45-22 186-45 286-45 68 0 91-5 155-33 42-18 97-48 123-66 98-67 122-73 271-65 156 8 182 1 275-70 145-112 297-148 445-106 99 27 151 21 261-30 11-6 47-17 80-25 64-16 69-20 120-106 61-104 76-95-170-103-119-4-357-4-529 0l-313 7 5 71c2 39 11 82 19 94 13 21 13 26-3 43-9 10-23 19-29 19-7 0-57-38-111-84-124-106-160-126-229-126-73 0-99 12-115 52-67 175-110 214-251 224-135 10-239-28-239-86 0-33 22-79 43-92 30-19 92-38 152-46 47-7 50-9 53-40 2-20-4-42-17-61-12-16-21-35-21-43 0-16-101-186-140-237-14-18-61-73-105-122-147-166-236-286-252-342-16-53 8-131 52-173 49-46 137-84 193-84 44 0 113 18 128 33 4 4 17 7 29 7 11 0 25 4 31 9 9 9 41 14 209 31 55 5 123 14 150 19 117 23 180 11 275-48 100-63 297-246 326-303 8-16 18-28 23-28 4 0 48-39 98-87 144-141 320-303 328-303 4 0 20-9 36-21 27-19 29-25 29-86 0-60 8-100 31-158 59-149 61-221 8-327-5-10-9-27-9-39 0-11-5-29-10-40-16-28-31-104-40-200-5-48-13-95-18-105-5-11-16-32-23-48-16-34-113-132-151-152-15-7-29-22-33-33-9-28-102-57-270-82-82-12-168-24-191-26l-41-5-17 55c-27 87-34 187-29 447 4 233 5 247 27 280 43 67 68 140 63 184-2 23 2 63 11 89 14 46 14 50-5 76-18 24-19 32-9 80 10 52 10 54-17 75-22 18-27 30-27 69 0 42-3 48-31 62-18 10-29 22-25 30 13 35 16 83 7 107-8 20-18 27-43 30l-33 3 3 53c7 101-35 147-88 97l-27-26-12 29c-16 38-69 89-102 97-69 17-80-82-17-151 18-20 18-22 1-51-17-30-17-31 10-66 18-24 27-48 27-72 0-23 9-48 25-69 18-23 25-45 25-75 0-23 7-56 16-73s13-40 10-51c-3-12 3-40 14-63 16-38 17-44 3-55-22-19-10-76 23-110 26-27 26-27 5-38-14-8-21-21-21-41 0-23 15-45 70-101l69-72-2-322c-1-178-4-322-5-320-20 20-72 114-72 131 0 12 7 56 16 98 20 99 17 127-19 144-24 12-27 18-22 42 7 33-9 70-30 70-11 0-14 12-12 49 1 37-3 54-18 71-21 23-25 59-25 187 0 34-4 64-10 68s-8 27-4 61c7 54 6 55-23 66s-31 15-36 81c-7 80-27 117-62 117-31 0-55-35-55-82 0-31-4-38-19-38-37 0-52-28-51-94 1-33-4-99-10-144-9-64-9-91 0-112 7-16 9-38 5-49-3-11 1-36 10-56 9-23 13-51 9-74-5-30-1-42 25-75 21-26 29-46 25-58-3-12 4-31 20-53 19-24 24-41 21-62-4-20 1-35 18-54 29-32 122-101 164-123 18-9 44-36 59-61 14-25 46-71 70-102 48-62 52-73 27-73-38 1-94 29-155 77-103 82-114 85-288 94-244 12-270 29-281 177-8 108-24 141-90 182-63 38-102 38-107-2-3-23 5-32 52-62 32-20 56-43 57-53 0-10 2-48 4-84 4-77 29-142 71-180 47-43 115-57 302-64 124-4 132-7 240-89 105-80 193-101 312-75 197 42 329 60 405 54 215-16 322-17 402-5 68 11 113 11 255 0 217-17 233-17 305 10 88 33 154 74 229 144 71 65 104 81 189 91 46 6 54 4 93-26 35-28 42-39 42-67 0-19-9-50-21-68-20-33-84-83-124-98-42-15-213-117-234-140-25-27-25-63 1-79 12-8 31-3 80 20 101 50 117 55 233 64 183 14 220 33 275 144 32 63 88 125 114 125 7 0 21-9 32-21 15-17 20-40 22-108 4-95 14-114 69-137 18-8 50-14 71-14 55 0 86 32 111 115 25 81 26 114 5 163-9 20-22 82-30 137s-23 128-34 163c-42 129-61 254-70 462-6 113-14 266-20 340-5 74-12 191-15 260s-10 181-15 250c-6 69-12 149-15 178-5 73 28 259 65 367 18 50 56 139 86 198 30 60 67 143 81 185 25 70 27 91 27 217 0 216-56 635-149 1110-68 351-98 783-67 945 24 120 73 274 139 435 103 254 152 417 152 515 1 70-28 352-54 540-19 132-14 201 21 328 48 176 113 444 142 585 17 84-15 346-50 409-20 35-25 38-64 38-31 0-51-7-73-26zm82-180c37-199 13-323-107-562-149-296-167-453-95-821 19-94 20-114 9-200-25-202-27-212-96-351-98-198-160-345-220-525-60-182-56-178-145-123-56 34-164 68-218 68-46 0-136-53-171-102-20-27-31-57-36-96-3-31-18-81-31-111-49-104-111-151-219-165-60-9-177 9-219 33-57 33-61 32-130-19-125-92-291-157-377-147-81 10-89 18-82 86l7 58-53 44c-77 65-78 66-24 159 102 175 89 262-49 342-42 25-47 31-47 63 0 46-30 78-62 66-30-11-62-65-54-94 4-19 64-83 158-170 23-21 25-29 19-59-10-41-23-68-68-134-50-74-53-117-13-177 18-26 34-64 37-85 4-33 1-42-24-63-65-54-170-110-228-119-80-13-98-28-114-91-26-105-50-128-171-169-55-19-78-21-150-16-147 10-181 25-280 124-47 48-100 108-117 134-34 51-72 69-98 48-46-39 25-247 107-312 105-84 197-110 398-110h125l91-48c49-27 148-74 220-105 245-107 556-276 661-359 65-51 75-70 25-48-30 14-62 16-172 13-301-7-323-7-360 13-19 10-64 40-100 66-36 27-90 58-120 70-51 21-66 22-195 16l-140-7-65 41c-165 104-202 115-452 139-120 12-174 33-263 101-58 45-95 112-95 174 0 129-36 269-138 539l-76 202 2 178c2 152 5 187 24 240 35 103 87 197 157 287 100 128 300 426 328 489 16 35 28 89 34 146 5 49 12 104 15 120 8 39 108 232 138 267 68 77 170 129 293 148 108 17 175 55 291 163 107 101 266 212 387 273 61 30 82 35 155 38 109 4 243 38 347 88 72 34 284 168 360 227 14 12 65 33 112 47 96 30 164 29 282-1 111-29 213-5 307 74 54 45 119 81 145 81 10 0 84-34 165-76 214-110 252-121 305-85 31 20 58 57 102 139 16 29 33 51 39 49s19-48 29-103zm-787-2609c27-8 75-30 107-50 32-19 69-38 82-41 24-6 25-9 25-88 0-91 7-160 45-456 25-189 26-214 15-315-6-60-18-141-26-180-24-119-24-121-35-104-5 7-9 28-9 45 0 121-89 347-173 441-84 96-143 174-197 261-30 49-68 108-84 131l-30 42 26 52c14 29 38 89 52 133 29 89 45 109 103 130 48 17 41 17 99-1zm-716-470c30-8 68-15 85-15 68 0 276-184 328-291 51-106 94-249 101-339 3-47 9-95 12-108 6-19 0-25-42-43-27-12-60-31-74-41-35-27-87-48-121-48-15 0-76-25-135-55-59-31-110-52-114-48-10 12-66 166-106 293-40 126-83 197-184 305-79 84-122 141-160 207l-31 57 23 5c127 23 175 39 238 80 37 24 71 49 75 56s17 9 29 6c11-4 46-13 76-21zm-605-125c8 0 29-20 47-44s60-77 94-117c105-128 165-226 216-351 48-119 92-258 84-266-4-3-143 84-236 148-44 30-353 183-495 245-73 31-185 98-185 110 0 7 9 20 19 29 22 20 51 96 51 133 0 13 6 23 14 23 14 0 243 115 260 130 4 4 32-3 62-16s61-24 69-24zm1160-807c19-93 73-229 127-322 206-356 191-314 168-486-15-113-23-129-58-120-30 7-129 74-157 105-11 12-53 40-92 62-80 43-93 59-146 163-37 73-90 146-194 264-56 63-113 154-113 179 0 15 92 59 160 76 100 26 129 36 205 72 39 18 76 33 82 34 7 0 15-12 18-27zm-1757-475c-5-35-13-71-18-80-6-10-10-23-10-30-1-20-69-108-88-114-9-3-27-11-39-17-38-17-101 9-155 64-50 53-59 57-82 33-14-14-14-18-1-44 32-62 145-130 216-130 15 0 43 7 63 15 43 18 126 97 126 120 0 8 4 15 8 15s12 15 17 33l10 32 120 7c159 9 1019-10 1023-23 7-19 149-226 246-359 176-241 250-334 318-400 114-110 258-312 258-359-1-44-71-174-102-189-29-14-37-10-127 52-37 26-44 28-65 16-27-14-51-65-91-192-10-32-23-58-29-58s-45 16-86 36-86 41-100 47c-14 5-33 13-42 18s-35 12-58 15c-22 4-40 7-40 8s4 17 10 36c14 49 5 72-28 68-18-2-28-11-32-28-4-14-35-68-70-120-133-202-168-318-157-512 6-92 4-103-16-136-21-34-68-129-87-177-5-11-11-76-15-144-6-122-7-123-43-171-20-27-41-49-46-49-26-2 29 283 84 434 39 108 37 133-21 306-35 105-39 126-39 219 0 56-5 121-11 144-32 124-28 113-103 249-34 60-41 68-65 65-38-4-40-46-4-100 27-41 57-99 82-161 17-42 14-89-4-85-16 3-148 122-262 237-68 68-70 77-15 104 15 6 38 34 52 62s45 64 70 83c45 35 80 81 80 106 0 35 78 66 168 66 70 0 85-6 162-71 103-87 219-139 310-139 95 0 185 44 199 97 17 61-11 113-88 162-44 28-101 96-101 119 0 24-48 124-87 180-24 35-43 66-43 70s-29 40-64 78c-60 66-83 81-197 135-8 4-75 10-148 14-118 7-136 10-169 33-98 67-148 77-207 43-36-21-93-123-94-169-1-36-23-85-51-117-28-31-70-112-70-134 0-11-4-23-10-26-5-3-10-20-10-36s-7-46-15-66c-8-19-15-46-15-59 0-12-4-26-10-29-5-3-10-13-10-22 0-18-38-63-53-63-6 0-35 17-65 37-107 71-143 83-241 83-49 0-101-4-115-9-13-6-71-13-128-16-125-7-267-33-303-55-5-3-27-12-49-19-42-14-94-4-144 28l-23 14 24 21c40 35 60 75 46 92-17 21-69 17-96-8l-23-21v27c0 29 41 95 84 135 14 14 26 30 26 37 0 6 39 54 88 105 108 116 147 164 203 254 39 63 124 154 168 180 49 30 222 48 236 25 18-29 131 24 248 118 16 12 32 22 36 22s4-28-1-62zm-336-1275c23-26 41-64 34-71-8-7-65 59-66 76 0 17 14 15 32-5zm151-146c-6-49-25-60-31-18-4 28 18 85 29 74 4-4 5-30 2-56zm-89-39c24-34 19-41-14-21-31 18-40 43-16 43 8 0 22-10 30-22zm165-108c-14-63-23-67-39-19-13 40-13 42 10 61 31 26 41 12 29-42zm-145 4c18-7 22-48 4-42-6 2-18 14-26 26-15 22-8 27 22 16zm1556-13c0-17-42-109-105-231-7-14-16-68-19-120-9-127-24-186-61-240-17-25-39-63-49-85s-27-58-37-79c-22-46-27-213-8-276 10-33 8-42-15-84-14-26-26-58-26-71 0-22-4-25-39-25-22 0-51-4-65-10-45-17-34 23 28 105 32 41 33 46 39 166 4 81 12 138 22 164 24 56 52 115 75 152 16 27 20 60 25 200 8 187 25 255 93 363 51 82 60 90 104 90 31 0 38-4 38-19zm245-96c82-41 155-75 162-75s21-4 31-9c49-24 137-47 220-58 54-6 60-21 39-87-32-100-47-165-47-201 0-20-5-45-10-55-7-13-7-49 1-113 14-117 4-157-55-229-88-108-178-159-347-197-46-11-142-42-214-70-128-50-234-77-261-67-21 8-17 66 7 106 19 31 21 43 14 125-9 128-6 205 9 240 46 99 70 144 96 180 33 47 38 65 51 205 9 108 24 174 44 200 7 8 29 52 51 98 21 45 43 82 49 82s78-34 160-75zm-1735 34c0-18-2-20-15-9s-13 15-3 21c18 12 18 12 18-12zm130-49c0-19-23-59-31-54-13 8-11 38 3 52s28 16 28 2zm-144-22c25-11 72-94 60-105-13-13-78 55-90 95-8 26-6 26 30 10zm184-108c0-25-27-80-39-80-5 0-11 15-15 33-5 26-2 35 15 50 28 22 39 22 39-3zm-126-71c25-20 36-59 17-59-9 0-34 32-55 68-11 19 8 14 38-9zm-319-85c19-45 19-54 0-54-18 0-35 31-35 64 0 37 17 32 35-10zm465 10c0-15-33-74-41-74-21 0-20 32 1 56 22 23 40 31 40 18zm-115-82c-9-9-55 21-55 35 0 10 9 7 30-8 16-13 28-25 25-27zm-256-4c-7-13-14-18-16-11-3 7 1 22 8 35s14 18 16 11c3-7-1-22-8-35zm-97-45c22-19 24-53 4-53-16 0-46 37-46 57 0 18 20 16 42-4zm448-37c0-16-18-31-27-22-8 8 5 36 17 36 5 0 10-6 10-14zm-344-44c-15-15-16-15-16 4 0 28 24 52 28 28 2-9-3-24-12-32zm-100-33c20-12 34-29 34-40 0-27-23-24-54 7-24 25-35 54-20 54 4 0 22-9 40-21zm119-96-8-38-9 28c-7 20-6 32 2 43 18 21 23 10 15-33zm-97-23c19-12 32-28 32-40 0-35-45-18-68 27-22 40-13 43 36 13zm131-132-12-22-9 23c-6 17-4 31 9 50l18 26 3-27c2-15-2-37-9-50zm-114 14c42-29 58-62 31-62-17 0-86 65-86 80s12 11 55-18zm161-138c-3-8-10-14-16-14-14 0-13 27 2 53l13 22 3-23c2-13 1-30-2-38zm-106 1c30-32 14-32-25 0-20 16-25 24-14 25 8 0 26-11 39-25zm157-90c-6-19-14-35-19-35-15 0-13 47 4 67 18 22 26 4 15-32zm-111-29c10-8 17-17 14-19-3-3-16 3-29 14-27 22-15 26 15 5zm1104-95c0-33-3-62-7-64-21-11-60-15-73-7-12 8-11 12 6 32 11 13 29 40 39 61 11 20 23 37 27 37 5 0 8-27 8-59z"/>
<path d="m5852 8508c-5-7-17-27-25-44-15-30-15-32 7-53 30-28 80-28 100 1 21 30 20 71-2 91s-65 22-80 5z"/>
<path d="m22785 12045c-5-2-46-7-90-10-74-7-82-10-112-42-18-19-33-41-33-50 0-8-6-29-14-46-7-18-30-79-51-137-20-58-41-114-45-125s-25-67-45-125c-21-58-44-119-51-137-8-17-14-35-14-39 0-8-55-162-71-199-9-20-18-47-58-165-12-36-26-74-31-85-9-20-18-44-59-165-12-36-27-74-32-85s-13-33-18-50c-5-16-19-55-31-85s-24-66-27-80-9-29-13-35c-4-5-13-26-18-45-6-19-20-60-32-90-11-30-32-86-45-125-13-38-33-95-45-125-11-30-32-86-45-125-13-38-33-95-45-125s-27-73-35-95c-7-22-27-78-45-125-17-47-35-98-41-115-5-16-13-39-18-50s-23-60-41-110c-17-49-38-110-47-134-24-67-22-119 5-141 47-39 309-34 353 6 21 19 78 158 109 269 11 38 98 293 109 320 12 30 31 85 43 125 22 76-32 70 667 68l626-3 18-38c9-20 33-86 53-145 19-59 40-116 45-127s14-33 19-50c5-16 25-75 45-130s40-113 45-130c21-72 43-123 63-149 19-24 33-29 102-38 75-9 237-4 271 9 8 3 21 18 30 34 13 26 13 35-2 81-8 29-20 64-26 78-5 13-18 51-29 85-11 33-25 69-30 80s-13 34-18 50c-5 17-19 55-31 85s-32 87-45 125c-13 39-34 95-45 125-12 30-25 69-30 85-5 17-18 55-30 85-31 80-48 126-75 205-13 39-33 95-45 125-11 30-32 87-45 125-13 39-33 95-45 125s-26 69-31 85c-5 17-13 39-18 50s-20 49-32 85c-40 118-49 145-58 165-16 37-71 191-71 199 0 4-6 22-14 39-7 18-24 61-36 97s-29 79-36 97c-8 17-14 36-14 42s-4 19-9 29c-5 9-26 64-46 122s-41 114-46 125-13 34-18 50c-5 17-26 75-46 130s-40 112-44 126c-30 93-68 125-159 134-138 12-167 14-177 10zm60-525c8-25 30-90 50-145s40-113 45-130c4-16 18-55 30-85s26-68 30-85c10-36 37-113 49-140 5-11 12-29 14-40 3-11 22-65 42-120 19-55 47-134 60-175 14-41 29-84 34-95s19-49 31-85c11-36 25-74 30-85 26-59 72-215 67-229-6-14-58-16-506-16-275 0-506 3-515 6s-16 13-16 21c0 14 43 148 60 188 5 11 25 70 45 130 20 61 41 119 45 130 5 11 27 74 49 140s64 185 92 265 53 154 56 165c2 11 9 29 14 40s21 58 37 105c45 133 91 265 103 296 10 28 11 28 25 9 8-11 21-40 29-65z"/>
<path d="m15236 12031c-44-9-63-30-71-75-3-17-4-687-3-1488 3-1454 3-1457 23-1478 28-28 157-42 266-30 131 15 118-70 119 800 0 661 4 794 23 770 42-56 71-95 102-140 21-30 42-59 47-65 19-23 257-344 296-400 53-74 90-125 220-301 453-610 467-628 506-648 33-16 59-19 170-19 141 0 199 12 217 44 12 23 3 73-19 109-15 23-236 324-265 360-7 8-29 38-50 65-20 28-40 55-45 60-101 127-740 987-744 1002-5 20 128 188 405 513 185 218 618 743 635 771 13 22 22 53 22 77 0 68-24 77-200 77-133 0-148-2-182-23-20-12-91-92-160-179-67-86-128-161-133-167-6-6-35-42-65-81-30-38-63-79-72-90s-73-92-143-180-139-176-155-195c-92-114-364-458-376-474-7-11-17-16-21-12-5 4-10 312-13 683l-5 676-27 20c-22 17-45 20-145 23-65 2-136-1-157-5z"/>
<path d="m17756 12030c-22-4-48-18-58-30-17-21-18-88-18-1496 0-1078 3-1480 11-1498 15-32 27-37 119-46 111-12 225 2 256 31l24 22v1483c0 1408-1 1483-18 1504-10 13-36 25-62 31-54 10-200 10-254-1z"/>
<path d="m18985 12015c-52-28-74-56-85-109-7-35-10-488-8-1436 3-1362 3-1386 23-1424 40-79 24-77 574-73 545 5 614 11 846 80 186 56 374 167 509 302 206 206 324 465 381 839 34 219 19 627-30 801-8 28-21 79-30 114-15 58-80 210-123 287-47 85-172 235-245 295-43 35-91 74-105 87-36 30-303 162-328 162-11 0-24 4-29 9-10 9-141 39-270 62-47 8-229 13-560 16-435 3-493 2-520-12zm1020-348c146-27 194-46 352-134 131-72 294-266 352-418 44-117 49-131 64-200 40-178 42-202 41-410-1-173-5-230-23-325-13-63-26-136-31-161-5-26-13-55-18-65-6-11-20-44-32-74-31-80-40-98-92-175-60-90-88-121-168-187-68-56-204-128-280-148-25-6-70-18-100-26-139-36-729-61-758-32-9 9-12 287-12 1188 0 647 3 1180 7 1184 14 14 612 0 698-17z"/>
<path d="m13670 8165v-135l5938 2 5937 3v130 130l-5937 3-5938 2v-135z"/>
<path d="m14973 7216c-68-18-91-48-105-139-11-74-13-79-40-84-15-3-33-12-39-20-19-22 4-59 40-66l31-6v-206-205l24-6c62-15 61-18 64 206 2 148 6 206 15 212 6 4 29 8 50 8 30 0 40 5 49 25 15 33-4 55-47 55-55 0-65 8-65 51 0 39 17 88 35 102 5 4 29 6 52 5 24-1 48 3 54 9 16 16 2 51-24 58-43 13-52 13-94 1z"/>
<path d="m18328 7209c-16-9-18-26-18-134 0-68-4-126-9-130-5-3-26 6-47 20-28 19-50 25-91 25-60 0-84-9-126-49-51-47-69-104-69-217 0-116 16-159 77-212 33-30 41-32 107-32 60 0 76 4 104 25 41 32 72 33 76 3 2-18 10-23 33-23h30l3 354c2 253-1 358-9 367-13 16-37 17-61 3zm-80-321c54-33 62-53 62-154 0-85-2-95-26-123-68-81-156-83-204-5-17 27-21 50-21 124 0 106 16 144 71 172 38 19 68 16 118-14z"/>
<path d="m20238 7209c-16-9-18-26-18-127 0-143-5-154-53-118-29 22-46 27-91 27-60 0-86-10-129-50-51-47-69-104-69-216-1-116 15-159 77-213 33-29 42-32 104-32 56 0 75 4 105 25 46 32 74 32 78 3 2-18 10-23 33-23h30l3 354c2 253-1 358-9 367-13 16-37 17-61 3zm-80-321c54-33 62-53 62-155 0-88-1-94-30-127-17-18-48-41-71-50-37-15-43-15-74 0-58 27-76 69-76 173-1 106 15 145 71 173 38 19 68 16 118-14z"/>
<path d="m23551 7206c-8-9-11-114-9-367l3-354 28-3c58-7 57-11 57 369 0 334-1 349-19 359-27 14-46 13-60-4z"/>
<path d="m22272 7168c-13-13-15-37-6-62 7-19 64-22 82-4 7 7 12 21 12 33 0 28-19 45-50 45-14 0-31-5-38-12z"/>
<path d="m13868 7153c-8-10-29-58-47-108-18-49-39-105-47-123s-14-37-14-43-6-25-14-42c-16-37-71-190-81-227-4-14-11-30-16-36s-10-29-12-50c-2-30 2-39 16-42 38-8 65 7 72 39 4 17 13 42 21 57s14 34 14 43c0 34 22 39 160 39h137l15-37c9-21 24-60 35-88 18-48 20-50 58-50s40 1 39 30c-1 17-18 75-38 130-21 55-41 111-46 125s-18 50-30 80-25 69-30 85c-5 17-18 55-30 85s-25 67-30 81c-17 55-33 69-76 69-27 0-46-6-56-17zm85-180c14-43 37-107 50-143 35-98 34-100-83-100-87 0-99 2-104 18-11 35 86 302 110 302 1 0 13-35 27-77z"/>
<path d="m14305 7148c-3-13-4-167-3-343l3-320 43-3 42-3-2 343-3 343-37 3c-32 3-38 0-43-20z"/>
<path d="m16375 7147c-13-21-15-70-13-343l3-319 43-3 42-3v119c0 66 3 134 6 151l7 31h111c115 0 136 6 136 42 0 29-34 38-143 38-122 0-117-6-117 122 0 114-8 108 136 108 113 0 124 2 134 20 8 14 8 26 0 40-10 19-21 20-170 20-156 0-160 0-175-23z"/>
<path d="m20898 7153c-8-10-18-27-21-38s-19-57-36-103c-32-88-50-138-76-212-9-25-20-54-25-65s-19-49-31-85-28-83-36-104c-19-54-12-68 34-64 35 3 39 7 56 53 11 28 21 62 24 77 9 45 21 49 168 46l138-3 22-60c46-124 40-116 87-113 41 3 43 4 40 33-2 17-8 35-12 40-4 6-13 26-18 45-16 53-67 194-74 205-3 6-10 26-16 45s-20 60-32 90-24 64-27 75-11 34-19 52c-8 17-14 36-14 42 0 7-7 23-16 36-13 20-25 25-59 25-27 0-47-6-57-17zm75-140c2-16 15-53 27-83s25-69 29-85c4-17 13-41 20-53 7-13 9-32 6-42-6-18-16-20-99-20-64 0-97 4-104 13-13 15-6 46 41 180 47 130 68 154 80 90z"/>
<path d="m23818 7109c-13-7-18-23-18-60 0-47-2-50-30-55-42-9-56-28-42-59 7-14 20-25 30-25 37 0 42-20 42-157 0-230 22-273 141-275 69-1 95 15 86 54-6 21-11 23-55 20-47-4-49-3-66 32-14 29-16 61-14 178l3 143 58 5c36 3 62 11 67 20 25 39 3 58-70 62l-55 3-5 50c-3 28-9 56-13 63-10 14-35 15-59 1z"/>
<path d="m15905 6993c-11-3-38-18-60-35l-40-29-13 31c-15 38-58 43-67 8-3-13-4-126-3-253l3-230 28-3c53-6 57 6 57 178 0 147 1 159 22 186 35 45 59 59 113 64 45 4 50 8 53 31 2 14-3 31-10 37-17 14-58 21-83 15z"/>
<path d="m17005 6990c-69-10-118-44-161-110-27-42-28-51-28-150 0-82 4-113 18-140 44-84 94-111 208-111 75 0 84 2 133 35 78 52 100 102 99 231 0 87-3 105-24 140-14 22-31 46-40 53-52 43-129 63-205 52zm99-84c18-7 44-29 57-47 21-29 24-45 23-124 0-71-4-96-18-118-60-90-185-95-238-8-20 31-23 50-23 127 1 84 3 94 28 128 40 51 108 68 171 42z"/>
<path d="m17577 6988c-60-8-121-49-156-103-23-35-26-52-29-141-5-137 19-191 110-248 19-13 49-17 112-17 94-1 126 12 176 68 53 59 62 88 62 192 0 85-3 104-24 142-48 86-138 124-251 107zm128-92c38-25 55-77 55-166 0-66-4-89-21-117-56-90-191-86-240 7-23 42-26 164-5 213 15 37 52 73 81 80 31 9 106-2 130-17z"/>
<path d="m18935 6993c-92-12-157-65-122-100 11-12 20-13 29-6 7 6 40 18 72 28 55 15 62 15 102 0 42-16 61-42 65-90 3-39-2-42-65-48-95-9-150-26-189-58-28-23-36-38-41-76-9-66 4-101 46-136 33-27 44-29 107-29 61 1 76 5 106 28l35 26 10-26c10-27 41-35 68-17 22 13 13 385-10 427-31 57-118 88-213 77zm145-304c16-30 3-74-32-108-61-60-149-50-169 19-21 70 26 109 133 110 48 0 59-3 68-21z"/>
<path d="m22056 6992c-10-2-37-17-59-33l-41-29-12 30c-15 35-48 40-64 10-7-12-9-103-8-252 3-216 4-233 21-236 10-2 29-1 42 2 24 6 24 7 27 177l3 170 42 40c38 35 48 39 93 39 48 0 50 1 50 28 0 15-4 32-8 38-8 13-59 23-86 16z"/>
<path d="m24905 6992c-11-2-38-17-59-33l-40-29-12 30c-15 35-48 40-64 10-7-12-9-103-8-252 3-216 4-233 21-236 10-2 29-1 42 2 24 6 24 7 27 177l3 170 42 40c38 35 48 39 93 39 48 0 50 1 50 28 0 15-4 32-8 38-9 13-59 23-87 16z"/>
<path d="m15245 6971c-43-20-80-57-109-110-16-28-19-54-19-135 1-132 20-173 105-224 31-19 51-23 122-23 80 0 89 2 131 31 25 17 58 50 72 73 23 36 28 56 31 135 7 140-32 217-127 258-48 20-157 18-206-5zm197-88c37-35 51-92 46-175-8-111-59-164-151-161-45 2-103 41-119 81-5 15-10 64-10 110 0 74 3 87 27 123 32 45 70 60 135 54 30-4 53-14 72-32z"/>
<path d="m19334 6977c-2-7-3-120-2-252l3-240h35 35l10 344 34 35c57 59 136 65 175 13 18-24 20-45 24-207 4-180 5-180 28-186 53-13 54-10 54 197 0 216-6 242-69 285-49 33-134 34-182 1-58-39-69-40-81-7-7 22-16 30-34 30-14 0-27-6-30-13z"/>
<path d="m21419 6970c-71-38-107-153-70-224 13-24 13-30-3-57-22-38-23-99-1-132 16-25 16-27-12-63-41-55-38-114 8-155 44-39 65-44 184-44 95 1 103 3 145 31 94 63 104 164 21 223-22 16-50 22-117 27-117 7-174 27-174 60 0 27-1 27 111 24 65-1 82 2 112 22 57 37 81 88 74 159-5 58-4 60 24 74 32 17 40 59 13 69-9 3-75 6-147 6-110-1-138-4-168-20zm151-57c36-24 40-33 40-88s-4-64-40-88c-64-44-150 3-150 83 0 51 12 75 48 94 36 20 72 20 102-1zm69-427c29-27 26-62-8-97-28-27-34-29-109-29-66 0-84 4-107 22-22 17-26 27-22 54 3 17 14 42 24 54 16 20 26 21 109 18 73-2 96-7 113-22z"/>
<path d="m22274 6977c-2-7-3-120-2-252l3-240h35 35l3 239c2 167-1 243-9 252-14 18-58 18-65 1z"/>
<path d="m22585 6962c-22-15-53-48-70-72-29-43-30-49-30-155 0-142 19-187 103-242 15-11 47-16 100-16 67 0 84 4 120 27 34 21 42 32 42 56 0 41-13 44-65 15-30-16-61-25-90-25-37 0-50 6-79 35-40 40-52 92-43 191 13 132 95 174 222 115 45-22 55-19 55 12-1 54-62 87-157 87-58-1-74-5-108-28z"/>
<path d="m22969 6968c-8-14-10-77-7-203 4-197 8-212 67-262 39-34 146-32 201 2 50 31 58 31 70-1 8-20 16-25 38-22l27 3 3 230c1 127 0 240-3 253-7 29-59 31-75 3-6-11-10-87-10-175 0-152 0-155-26-186-70-82-170-78-194 9-5 20-10 103-10 184 0 83-5 157-10 168-14 26-56 25-71-3z"/>
<path d="m24149 6968c-8-15-10-74-7-198 6-196 18-238 76-272 47-28 146-24 197 7 50 31 63 31 67 3 2-18 10-23 33-23h30v250 250l-25 3c-52 5-55-4-60-190-5-161-6-175-27-195-53-53-121-67-160-34-32 27-42 87-43 244 0 76-5 147-10 158-15 26-56 25-71-3z"/>
<path d="m25180 6971c-44-24-72-54-100-108-19-37-21-55-18-145 3-92 6-107 31-145 15-24 46-55 69-69 37-24 51-26 139-27 108 0 161 19 167 61 5 32-22 38-80 17-123-44-246 24-236 129l3 31 330 10 3 52c3 58-25 133-62 165-58 50-179 64-246 29zm148-55c43-22 65-52 66-93l1-38h-120c-111 0-120 1-124 20-5 30 30 85 68 105 43 23 73 25 109 6z"/>
</g>
</svg>
